PathFileType	4	(X/Y/Z)	pose_F01_0-91.trc
DataRate	CameraRate	NumFrames	NumMarkers	Units	OrigDataRate	OrigDataStartFrame	OrigNumFrames
30	30	7	21	m	30	68	91
Frame#	Time	CHip			RHip			RKnee			RAnkle			RBigToe			RSmallToe			RHeel			LHip			LKnee			LAnkle			LBigToe			LSmallToe			LHeel			Neck			Nose			RShoulder			RElbow			RWrist			LShoulder			LElbow			LWrist			
		X1	Y1	Z1	X2	Y2	Z2	X3	Y3	Z3	X4	Y4	Z4	X5	Y5	Z5	X6	Y6	Z6	X7	Y7	Z7	X8	Y8	Z8	X9	Y9	Z9	X10	Y10	Z10	X11	Y11	Z11	X12	Y12	Z12	X13	Y13	Z13	X14	Y14	Z14	X15	Y15	Z15	X16	Y16	Z16	X17	Y17	Z17	X18	Y18	Z18	X19	Y19	Z19	X20	Y20	Z20	X21	Y21	Z21	
68	2.2666666666666666	-0.17489544565319237	1.879168955749214	-0.5463808655434467	-0.1822753862956277	1.8747775924806411	-0.48550178433548064	-0.19443690994882634	1.7421458428349286	-0.4346638678158411	-0.17777409552095566	1.6125249282082483	-0.4271934943442564	-0.20230981951608254	1.5779131150965529	-0.3770908524360551	-0.19870295310297853	1.587843419532496	-0.35922471606527234	-0.1729384404382161	1.602577571639462	-0.4363266914584104	-0.16237793647072182	1.8848481654824183	-0.6116622584216426	-0.1632121693422007	1.7516063270374889	-0.6533856257184637	-0.15332636372347638	1.5892290962555062	-0.7230676434210273	-0.1788959130423589	1.5427035382555927	-0.7090191712138033	-0.28351571378839485	1.4846825082455928	-1.2049615202677355	-0.141302459716552	1.5757461935087966	-0.7288458675212762	-0.18057200022132855	2.030384699396277	-0.5476033293177094	-0.20372536774534208	2.082405576561583	-0.5039108384677826	-0.1860871954326605	2.0216069123484566	-0.45629386432133195	-0.19603191449078614	1.9446054393244419	-0.3824907915002709	-0.2391647939658441	1.9601360975422322	-0.3116442317130957	-0.1693253589907201	2.037161508485094	-0.6343115500916915	-1.4724771077818297	1.8651804406318209	0.6703799273634437	-0.19469719173978853	1.958529961025579	-0.6542884980034258
69	2.3	-0.17384330582798072	1.8792940096151065	-0.5518086886377542	-0.18400189537648498	1.87617109079588	-0.4921525052648249	-0.1954053602566107	1.7423584344865812	-0.43800017497026555	-0.17799268697031032	1.611154039257286	-0.4266552543822478	-0.20514006823661393	1.576750211279844	-0.37813309042490006	-0.20024343366847172	1.5857556593451991	-0.35698086919452116	-0.17333141465620594	1.6026310951686993	-0.43560762861520774	-0.16334426388088347	1.883691196874541	-0.6148328720539163	-0.16316569418475158	1.750227085285948	-0.6534895344315566	-0.15380767465305392	1.589905117711565	-0.7269429305913366	-0.17661120345641346	1.5431628729258053	-0.7113468139885188	-0.28190509936266644	1.4859928961032467	-1.2118686911161167	-0.14344758122713297	1.5773851077740435	-0.7274360007883334	-0.17845902420050916	2.0329326258969087	-0.5504206868275111	-0.20145662475316467	2.0907819878640717	-0.5250851042899535	-0.18481047617130122	2.0250374100463078	-0.4616479869838714	-0.19724907819196122	1.9484379775257665	-0.3872164065605509	-0.23739309818098686	1.9383620842757456	-0.299473258620004	-0.16717827682820635	2.040908001279346	-0.6374626231989732	-0.14724375358024855	1.9757365129014095	-0.7023814154603972	-0.19206797018127433	1.9412215628106264	-0.669550711803698
70	2.3333333333333335	-0.17578584788662027	1.8818832214767323	-0.5502218012557226	-0.18397828198434438	1.878789632518523	-0.4927830858492722	-0.19333033533287117	1.7380790002893205	-0.4399035482086489	-0.1777029582629172	1.609103135998108	-0.42693005351739594	-0.20390259220833337	1.5762486374464437	-0.3748472376307324	-0.19826928537842836	1.585435991333684	-0.35916558163325646	-0.17406506455087642	1.6007541402938825	-0.4390538712155807	-0.16421675249910228	1.88639516526715	-0.6183700604638948	-0.16163101059519971	1.7479515102800944	-0.6548746039737252	-0.1537416025622075	1.589207899892243	-0.7224184503844736	-0.17878738958404583	1.5427311859154764	-0.7091736072271135	-0.2810267041548442	1.4867258447352028	-1.2086021770252637	-0.14156518147622313	1.5745180745914877	-0.7280743744885088	-0.1772389537475564	2.034316999963975	-0.5557846679437694	-0.1992019305060994	2.0947655522998203	-0.5361039572332966	-0.1866195327077864	2.0276779315894693	-0.46846969394512256	-0.19545377753473417	1.9529980611332014	-0.3990901170749969	-0.23586750917738977	1.9210527564409976	-0.2977466993680855	-0.1651014795003064	2.0422994832089794	-0.6403797856415353	-0.1501383070642714	1.9811871283296356	-0.7036856231239844	-0.17844682342459742	1.9305193446795994	-0.6982711973451313
71	2.3666666666666667	-0.17677014779314473	1.881901395417392	-0.5534303982997529	-0.18491109736149403	1.8788700326674697	-0.49602328942020707	-0.19554688378954493	1.7435352673021616	-0.4471119545963014	-0.17936968844698908	1.6103420365654133	-0.42535662745128294	-0.20392054693079303	1.578495265257835	-0.3754142871831875	-0.2007690776241955	1.5886474379020976	-0.3568260534474944	-0.17418351263492254	1.6011946638690784	-0.43901826602587946	-0.1671824544386186	1.8849677615245304	-0.6189674488889864	-0.163404801430108	1.7503220419564873	-0.6533141948349783	-0.15240743772728846	1.5855007609824034	-0.7274611415554326	-0.3086036851122067	1.4828501003899905	-1.1706162099859825	-0.28825630267056507	1.4827729130166805	-1.1976888646587265	-0.14012525428646028	1.568290602625192	-0.7327551318989044	-0.1761277142280508	2.0358393054901147	-0.5615926358122793	-0.19891567724348747	2.101376139176022	-0.546083470799609	-0.18752561167040413	2.0301408182076948	-0.47223977670986717	-0.19342596581259816	1.9511912955379913	-0.40099746695116417	-0.22524049054382103	1.9032510893666814	-0.29217589020277324	-0.16371596289164486	2.0435761852955565	-0.6456262378013017	-0.15462174373418633	1.972689394995897	-0.7085992315275887	-1.352218036339317	1.8391728475797768	0.5028774132372003
72	2.4	-0.17840632966770376	1.8858397190380911	-0.5602816033577317	-0.18762724262079802	1.8825776264818408	-0.4975917038573183	-0.19456309555611195	1.743514554598917	-0.45271683329383045	-0.1795735093851071	1.6088823790859623	-0.4248674865106712	-0.20202812752121224	1.576329111484606	-0.3773032449021468	-0.198464971862099	1.5864556462930037	-0.3592133332939755	-0.17405240902905011	1.6000705602321785	-0.43935382440878984	-0.16986238285356423	1.8887155963683162	-0.6204637164030735	-0.16328289336767904	1.7464631530430348	-0.6613526211051219	-0.15006514362270537	1.5847428773547676	-0.730085614991583	-0.30618736918515294	1.4842627408196245	-1.1742484269221893	-0.28588370653732265	1.4839652819296045	-1.2012587454905441	-0.14009857985703184	1.5706591198404067	-0.7337276665703406	-0.1740764016227941	2.035953118408738	-0.5640896424555621	-0.1996766236454746	2.105405211850485	-0.5501024561895856	-0.18659114113586348	2.0317058440697036	-0.47810537107445644	-0.1926284962728246	1.951577007361757	-0.40662229430935304	-0.22035014203510667	1.8916925492578833	-0.3048989551172825	-0.16026883553143761	2.042485289073335	-0.6528751613716763	-0.15250093919716964	1.971326387140311	-0.7105017828701071	-0.1779685133348849	1.8972965128383068	-0.7211329263293903
73	2.433333333333333	-0.17825165786700814	1.8844573992603988	-0.5602591376283109	-0.18777321418094875	1.8814541778671081	-0.497449292373483	-0.19558900953950661	1.7433613395002117	-0.45614640181824606	-0.17786166430685704	1.6105411890453225	-0.42673383213000415	-0.2036501574211995	1.574612620084717	-0.3748149323490016	-0.20095112829891026	1.5840469445280763	-0.360264635171047	-0.17203950465814682	1.6007712029618288	-0.4411988565340198	-0.16564412640997778	1.8887981664551086	-0.6251949886507498	-0.1642932236853085	1.7480210444006654	-0.6645407801695	-0.15457301173160298	1.5887240851845548	-0.7257079417073066	-0.30276027094090924	1.4848459639981044	-1.1748870858553155	-0.2810957347250113	1.484691436720694	-1.208673020655483	-0.1417167678716773	1.5743645488677351	-0.7284694240355195	-0.17484026277781334	2.037160473167071	-0.5672159373469622	-0.19855674851895036	2.108118197492167	-0.5557876379124116	-0.18847748331620695	2.030371863132696	-0.4755062518476218	-0.19327961392169055	1.9463338125206087	-0.40824865663529936	-0.21479423977257325	1.8805879941443644	-0.31808371011356557	-0.1596357099945873	2.045266292372574	-0.661726514634555	-0.15303636008767438	1.967367458471189	-0.7126134609020955	-0.16268126904502903	1.8910449034612895	-0.7394382426566223
74	2.466666666666667	-0.17917764880924217	1.8844859694238225	-0.5634228116079604	-0.18787595989435835	1.8814473561157092	-0.49743248402918183	-0.19535793630079834	1.744561051215943	-0.456530703233838	-0.17762845183070045	1.6115388834424127	-0.4273093462330938	-0.20496645533523217	1.576039301632463	-0.3781010286965319	-0.20147723178424173	1.5868951777524272	-0.36005745669446576	-0.17221366894599954	1.60173505413463	-0.4410610453787702	-0.16645405480339223	1.8888200547603913	-0.6283544469929367	-0.16594225178324865	1.7490561718598718	-0.6629278428791988	-0.1527834078234706	1.5879333827030948	-0.7274343571889517	-0.30526313610246253	1.4842580252596385	-1.1723889743663398	-0.28350834128577834	1.483460118746274	-1.2051607001683744	-0.14269850154876845	1.5725376423604265	-0.7311500799434997	-0.17573403440179286	2.0373274678141846	-0.5703512922546411	-0.1993690693403055	2.1106003517204384	-0.5593989154130754	-0.18941483463288938	2.0316780307898017	-0.4786045254321045	-0.19438767115478214	1.948092673646971	-0.42068645725458065	-0.20938172241962533	1.873088589938969	-0.33208006265527845	-0.15839549720965052	2.0455741974302137	-0.6671477622060344	-0.1522049453474518	1.9657981092840384	-0.7092224844275826	-0.16263453197198915	1.8871207418502363	-0.7387686155472328
